<svg xmlns="http://www.w3.org/2000/svg" width="32" height="32" viewBox="0 0 36 36">
  <rect width="36" height="36" rx="8" fill="#0D47A1"/>
  <path d="M10 25V11h5.5c1.4 0 2.5.3 3.3 1 .8.7 1.2 1.6 1.2 2.7 0 .8-.2 1.4-.6 2-.4.5-1 .9-1.7 1.1v.1c.9.1 1.6.5 2.1 1.1.5.6.8 1.4.8 2.3 0 1.3-.4 2.3-1.3 3-.9.7-2.1 1.1-3.6 1.1H10zm3-8.4h2.3c.7 0 1.3-.2 1.7-.5.4-.3.6-.8.6-1.4 0-.6-.2-1-.6-1.3-.4-.3-.9-.4-1.6-.4H13v3.6zm0 2.3v4.2h2.6c.8 0 1.4-.2 1.8-.5.4-.4.6-.9.6-1.6 0-.7-.2-1.2-.7-1.6-.4-.4-1.1-.5-1.9-.5H13z" fill="white"/>
  <path d="M24 25l-3-4.5h1.5c.8 0 1.4-.2 1.9-.6.4-.4.7-1 .7-1.7 0-.7-.2-1.3-.7-1.7-.4-.4-1.1-.6-1.9-.6H21v-2h1.5c1.4 0 2.6.4 3.4 1.1.9.8 1.3 1.8 1.3 3.1 0 1-.3 1.9-.8 2.6-.5.7-1.2 1.2-2 1.5L27 25h-3z" fill="#64B5F6"/>
</svg>